<mxfile host="app.diagrams.net" modified="2023-10-30T13:23:57.496Z" agent="Mozilla/5.0 (Macintosh; Intel Mac OS X 10_15_7) AppleWebKit/537.36 (KHTML, like Gecko) Chrome/118.0.0.0 Safari/537.36" version="21.7.2" etag="R3BIEsjWtUaEG0sBiSJ2" type="github">
  <diagram name="Seite-1" id="2Jv2A_SPTJcTWWjUNhSu">
    <mxGraphModel>
      <root>
        <mxCell id="0" />
        <mxCell id="1" parent="0" />
      </root>
    </mxGraphModel>
  </diagram>
</mxfile>
